<?xml version="1.0" encoding="UTF-8" standalone="no" ?>
<!DOCTYPE svg PUBLIC "-//W3C//DTD SVG 1.1//EN" "http://www.w3.org/Graphics/SVG/1.1/DTD/svg11.dtd">
<svg xmlns="http://www.w3.org/2000/svg" xmlns:xlink="http://www.w3.org/1999/xlink" version="1.1" width="640" height="360" viewBox="0 0 640 360" xml:space="preserve">
<desc>Created with Fabric.js 5.3.0</desc>
<defs>
</defs>
<g transform="matrix(4.4049807485 0 0 4.4049807485 337.6135085792 160.5477295016)" id="Qm7U88VyFxTTY5NcEZng3"  >
<g style=""   >
		<g transform="matrix(1 0 0 1 0 0)" id="4aDblYupBXjdWMPAkxGyl"  >
<path style="stroke: none; stroke-width: 1; stroke-dasharray: none; stroke-linecap: butt; stroke-dashoffset: 0; stroke-linejoin: miter; stroke-miterlimit: 4; fill: rgb(179,181,179); fill-rule: nonzero; opacity: 1;"  transform=" translate(-40, -40)" d="M 76.5 6.6 L 3.5 6.6 C 1.6 6.6 0 8.1 0 10.1 L 0 61.300000000000004 C 0 62.800000000000004 1.3 64.10000000000001 2.8 64.10000000000001 L 32.1 64.10000000000001 L 30.8 71.10000000000001 L 29.7 71.10000000000001 C 29 71.10000000000001 28.5 71.60000000000001 28.5 72.30000000000001 L 28.5 73.4 L 51.4 73.4 L 51.4 72.30000000000001 C 51.4 71.60000000000001 50.9 71.10000000000001 50.199999999999996 71.10000000000001 L 49.099999999999994 71.10000000000001 L 47.89999999999999 64.10000000000001 L 77.19999999999999 64.10000000000001 C 78.69999999999999 64.10000000000001 79.99999999999999 62.80000000000001 79.99999999999999 61.30000000000001 L 79.99999999999999 10.1 C 80 8.1 78.4 6.6 76.5 6.6 z M 40 8.1 C 40.6 8.1 41.1 8.6 41.1 9.2 C 41.1 9.799999999999999 40.6 10.299999999999999 40 10.299999999999999 C 39.4 10.299999999999999 38.9 9.799999999999999 38.9 9.2 C 38.9 8.6 39.4 8.1 40 8.1 z" stroke-linecap="round" />
</g>
		<g transform="matrix(1 0 0 1 0 -30.7936291501)" id="3Am4za64ltBQ02NJtFjYD"  >
<path style="stroke: none; stroke-width: 1; stroke-dasharray: none; stroke-linecap: butt; stroke-dashoffset: 0; stroke-linejoin: miter; stroke-miterlimit: 4; fill: rgb(255,255,255); fill-rule: nonzero; opacity: 1;"  transform=" translate(-40, -9.2063708499)" d="M 38.9 9.2 C 38.9 8.6 39.4 8.1 40 8.1 C 40.6 8.1 41.1 8.6 41.1 9.2 C 41.1 9.799999999999999 40.6 10.299999999999999 40 10.299999999999999 C 39.4 10.4 38.9 9.9 38.9 9.2 z" stroke-linecap="round" />
</g>
		<g transform="matrix(1 0 0 1 0 -6.85)" id="-lvtygsBDvAJqCCno-gvr"  >
<path style="stroke: none; stroke-width: 1; stroke-dasharray: none; stroke-linecap: butt; stroke-dashoffset: 0; stroke-linejoin: miter; stroke-miterlimit: 4; fill: rgb(255,255,255); fill-rule: nonzero; opacity: 1;"  transform=" translate(-40, -33.15)" d="M 5 11.7 L 75 11.7 L 75 54.599999999999994 L 5 54.599999999999994 L 5 11.7 z" stroke-linecap="round" />
</g>
</g>
</g>
<g transform="matrix(2.4739705538 -0.5711611067 0.5711611067 2.4739705538 148.5314626895 234.7066361041)" id="sbHqqHbx76pnqtpRRMlnw"  >
<g style=""   >
		<g transform="matrix(1 0 0 1 0 -0.05)" id="fkS79vHv65HwpSWpzIs9C"  >
<path style="stroke: none; stroke-width: 1; stroke-dasharray: none; stroke-linecap: butt; stroke-dashoffset: 0; stroke-linejoin: miter; stroke-miterlimit: 4; fill: rgb(179,181,179); fill-rule: nonzero; opacity: 1;"  transform=" translate(-40, -39.95)" d="M 66 0 L 14 0 C 12.2 0 10.8 1.5 10.8 3.3 L 10.8 76.6 C 10.8 78.39999999999999 12.3 79.89999999999999 14 79.89999999999999 L 66 79.89999999999999 C 67.8 79.89999999999999 69.2 78.39999999999999 69.2 76.6 L 69.2 3.3 C 69.2 1.5 67.8 0 66 0 z" stroke-linecap="round" />
</g>
		<g transform="matrix(1 0 0 1 0 36)" id="YSRsJGONzWQuGUb6LWiMr"  >
<path style="stroke: none; stroke-width: 1; stroke-dasharray: none; stroke-linecap: butt; stroke-dashoffset: 0; stroke-linejoin: miter; stroke-miterlimit: 4; fill: rgb(255,255,255); fill-rule: nonzero; opacity: 1;"  transform=" translate(-40, -76)" d="M 42.4 76 C 42.4 77.3 41.3 78.4 40 78.4 C 38.7 78.4 37.6 77.30000000000001 37.6 76 C 37.6 74.69999999999999 38.7 73.6 40 73.6 C 41.3 73.6 42.4 74.7 42.4 76 z" stroke-linecap="round" />
</g>
		<g transform="matrix(1 0 0 1 0 -37.3)" id="avCYQmBAnQ36wP-RLBhv9"  >
<path style="stroke: none; stroke-width: 1; stroke-dasharray: none; stroke-linecap: butt; stroke-dashoffset: 0; stroke-linejoin: miter; stroke-miterlimit: 4; fill: rgb(255,255,255); fill-rule: nonzero; opacity: 1;"  transform=" translate(-40, -2.7)" d="M 36.5 2.7 C 36.5 2.2 37 1.8000000000000003 37.6 1.8000000000000003 L 42.4 1.8000000000000003 C 43 1.8000000000000003 43.5 2.2 43.5 2.7 C 43.5 3.2 43 3.6 42.4 3.6 L 37.6 3.6 C 37 3.6 36.5 3.2 36.5 2.7 z" stroke-linecap="round" />
</g>
		<g transform="matrix(1 0 0 1 0 -1.2)" id="NcDh5tI9M_Nv28lTkeahM"  >
<path style="stroke: none; stroke-width: 1; stroke-dasharray: none; stroke-linecap: butt; stroke-dashoffset: 0; stroke-linejoin: miter; stroke-miterlimit: 4; fill: rgb(255,255,255); fill-rule: nonzero; opacity: 1;"  transform=" translate(-40, -38.8)" d="M 64.4 5.7 L 64.4 71.9 L 15.6 71.9 L 15.6 5.7 L 64.4 5.7 z" stroke-linecap="round" />
</g>
</g>
</g>
<g transform="matrix(1.6949701664 0.4226035265 -0.4226035265 1.6949701664 528.5708560153 264.7293087912)" id="D6r8bHudbIv5WTkD-_ERG"  >
<g style=""   >
		<g transform="matrix(1 0 0 1 0 0)" id="ImpBqjnHUTg5cjJk5SdUD"  >
<path style="stroke: none; stroke-width: 1; stroke-dasharray: none; stroke-linecap: butt; stroke-dashoffset: 0; stroke-linejoin: miter; stroke-miterlimit: 4; fill: rgb(179,181,179); fill-rule: nonzero; opacity: 1;"  transform=" translate(-40, -40)" d="M 52.4 0 L 27.6 0 C 20.700000000000003 0 16.1 5.6 16.1 12.5 L 16.1 67.5 C 16.1 74.4 20.700000000000003 80 27.6 80 L 52.400000000000006 80 C 59.300000000000004 80 63.900000000000006 74.4 63.900000000000006 67.5 L 63.900000000000006 12.5 C 63.9 5.6 59.3 0 52.4 0 z" stroke-linecap="round" />
</g>
		<g transform="matrix(1 0 0 1 -0.0491441723 0)" id="7ULh9xlncHRY0at4tFXI0"  >
<path style="stroke: none; stroke-width: 1; stroke-dasharray: none; stroke-linecap: butt; stroke-dashoffset: 0; stroke-linejoin: miter; stroke-miterlimit: 4; fill: rgb(255,255,255); fill-rule: nonzero; opacity: 1;"  transform=" translate(-39.9508558277, -40)" d="M 52.3 2.7 L 27.7 2.7 C 23.7 2.7 19.5 7.6000000000000005 19.5 11.600000000000001 L 19.5 68.4 C 19.5 72.4 23.7 77.30000000000001 27.7 77.30000000000001 L 52.2 77.30000000000001 C 56.2 77.30000000000001 60.400000000000006 72.4 60.400000000000006 68.4 L 60.400000000000006 11.6 C 60.5 7.6 56.2 2.7 52.3 2.7 z" stroke-linecap="round" />
</g>
		<g transform="matrix(1 0 0 1 -0.0384596996 29.0615403004)" id="OcFkhpsUEsro3HlaTa7tb"  >
<path style="stroke: none; stroke-width: 1; stroke-dasharray: none; stroke-linecap: butt; stroke-dashoffset: 0; stroke-linejoin: miter; stroke-miterlimit: 4; fill: rgb(179,181,179); fill-rule: nonzero; opacity: 1;"  transform=" translate(-39.9615403004, -69.0615403004)" d="M 43.3 68.4 C 43.8 70.80000000000001 41.699999999999996 72.9 39.3 72.4 C 38 72.10000000000001 36.9 71.10000000000001 36.599999999999994 69.7 C 36.199999999999996 67.3 38.199999999999996 65.3 40.599999999999994 65.7 C 42 65.9 43.1 67 43.3 68.4 z" stroke-linecap="round" />
</g>
		<g transform="matrix(1 0 0 1 0 -3.8)" id="wZtgkwaqP5oMf5LZPiKUx"  >
<path style="stroke: none; stroke-width: 1; stroke-dasharray: none; stroke-linecap: butt; stroke-dashoffset: 0; stroke-linejoin: miter; stroke-miterlimit: 4; fill: rgb(179,181,179); fill-rule: nonzero; opacity: 1;"  transform=" translate(-40, -36.2)" d="M 50.1 10.4 L 29.9 10.4 C 26.7 10.4 25.099999999999998 13 25.099999999999998 16.2 L 25.099999999999998 56.2 C 25.099999999999998 59.400000000000006 26.7 62 29.9 62 L 50.099999999999994 62 C 53.3 62 54.89999999999999 59.4 54.89999999999999 56.2 L 54.89999999999999 16.200000000000003 C 54.9 13 53.3 10.4 50.1 10.4 z" stroke-linecap="round" />
</g>
		<g transform="matrix(1 0 0 1 -0.05 -3.85)" id="TNlbGl4vlpHQKMJL1K3v_"  >
<path style="stroke: none; stroke-width: 1; stroke-dasharray: none; stroke-linecap: butt; stroke-dashoffset: 0; stroke-linejoin: miter; stroke-miterlimit: 4; fill: rgb(255,255,255); fill-rule: nonzero; opacity: 1;"  transform=" translate(-39.95, -36.15)" d="M 51.3 18.6 L 51.3 53.7 C 51.3 56.300000000000004 51 58.5 48.3 58.5 L 31.6 58.5 C 29 58.5 28.6 56.4 28.6 53.7 L 28.6 18.6 C 28.6 16 28.900000000000002 13.8 31.6 13.8 L 48.3 13.8 C 51 13.8 51.3 16 51.3 18.6 z" stroke-linecap="round" />
</g>
</g>
</g>
</svg>