<?xml version="1.0" encoding="UTF-8" standalone="no" ?>
<!DOCTYPE svg PUBLIC "-//W3C//DTD SVG 1.1//EN" "http://www.w3.org/Graphics/SVG/1.1/DTD/svg11.dtd">
<svg xmlns="http://www.w3.org/2000/svg" xmlns:xlink="http://www.w3.org/1999/xlink" version="1.1" width="640" height="360" viewBox="0 0 640 360" xml:space="preserve">
<desc>Created with Fabric.js 5.3.0</desc>
<defs>
</defs>
<g transform="matrix(1.62755387 0.5923811633 -0.5923811633 1.62755387 483.3541583107 157.2947364576)" id="wMfC5-wbAwTdltuPF0JHm"  >
<path style="stroke: rgb(179,181,179); stroke-width: 3; stroke-dasharray: none; stroke-linecap: butt; stroke-dashoffset: 0; stroke-linejoin: miter; stroke-miterlimit: 4; fill: rgb(255,255,255); fill-rule: nonzero; opacity: 1;"  transform=" translate(0.000005, 0)" d="M -58.36139 -33.60075 C -58.36139 -47.27567 -47.27567 -58.36139 -33.600750000000005 -58.36139 L 33.60074 -58.36139 L 33.60074 -58.36139 C 47.27566 -58.36139 58.36138 -47.27567 58.36138 -33.600750000000005 L 58.36138 33.60074999999999 L 58.36138 33.60074999999999 C 58.36138 47.27566999999999 47.275659999999995 58.361389999999986 33.60074 58.361389999999986 L -33.600750000000005 58.361389999999986 L -33.600750000000005 58.361389999999986 C -47.275670000000005 58.361389999999986 -58.36139 47.275669999999984 -58.36139 33.60074999999999 z" stroke-linecap="round" />
</g>
<g transform="matrix(1.7468297148 -0.3080132094 0.3080132094 1.7468297148 146.7631979603 161.784264333)" id="bCYNt9pSUulkJGwZHWIGQ"  >
<path style="stroke: rgb(179,181,179); stroke-width: 3; stroke-dasharray: none; stroke-linecap: butt; stroke-dashoffset: 0; stroke-linejoin: miter; stroke-miterlimit: 4; fill: rgb(255,255,255); fill-rule: nonzero; opacity: 1;"  transform=" translate(0.000005, 0)" d="M -58.36139 -33.60075 C -58.36139 -47.27567 -47.27567 -58.36139 -33.600750000000005 -58.36139 L 33.60074 -58.36139 L 33.60074 -58.36139 C 47.27566 -58.36139 58.36138 -47.27567 58.36138 -33.600750000000005 L 58.36138 33.60074999999999 L 58.36138 33.60074999999999 C 58.36138 47.27566999999999 47.275659999999995 58.361389999999986 33.60074 58.361389999999986 L -33.600750000000005 58.361389999999986 L -33.600750000000005 58.361389999999986 C -47.275670000000005 58.361389999999986 -58.36139 47.275669999999984 -58.36139 33.60074999999999 z" stroke-linecap="round" />
</g>
<g transform="matrix(2.1220561428 -0.3741757526 0.3741757526 2.1220561428 146.7631979603 161.784264333)" id="FCOPFE4IeY-0oy5WUsRm9"  >
<g style=""   >
		<g transform="matrix(1 0 0 1 0 0)" id="rK1eE8OR8gVYK68akRP9i"  >
<path style="stroke: none; stroke-width: 1; stroke-dasharray: none; stroke-linecap: butt; stroke-dashoffset: 0; stroke-linejoin: miter; stroke-miterlimit: 4; fill: rgb(179,181,179); fill-rule: nonzero; opacity: 1;"  transform=" translate(-40, -40)" d="M 58.5 19.5 L 21.5 19.5 C 9.7 19.5 0 28.1 0 40 C 0 51.9 9.7 60.5 21.5 60.5 L 58.5 60.5 C 70.3 60.5 80 51.9 80 40 C 80 28.1 70.3 19.5 58.5 19.5 z" stroke-linecap="round" />
</g>
		<g transform="matrix(1 0 0 1 0 0)" id="j-dJH6HPcpfcH1PU7xFne"  >
<path style="stroke: none; stroke-width: 1; stroke-dasharray: none; stroke-linecap: butt; stroke-dashoffset: 0; stroke-linejoin: miter; stroke-miterlimit: 4; fill: rgb(255,255,255); fill-rule: nonzero; opacity: 1;"  transform=" translate(-40, -40)" d="M 59.6 23.4 L 20.4 23.4 C 11.3 23.4 4 31 4 40 C 4 49 11.4 56.6 20.4 56.6 L 59.6 56.6 C 68.7 56.6 76 49 76 40 C 76 31 68.7 23.4 59.6 23.4 z" stroke-linecap="round" />
</g>
		<g transform="matrix(1 0 0 1 -19 0)" id="LumYUHNiQJ2nplwz0R-f8"  >
<path style="stroke: none; stroke-width: 1; stroke-dasharray: none; stroke-linecap: butt; stroke-dashoffset: 0; stroke-linejoin: miter; stroke-miterlimit: 4; fill: rgb(179,181,179); fill-rule: nonzero; opacity: 1;"  transform=" translate(-21, -40)" d="M 21 30.7 C 15.9 30.7 11.7 34.9 11.7 40 C 11.7 45.1 15.899999999999999 49.3 21 49.3 C 26.1 49.3 30.3 45.099999999999994 30.3 40 C 30.2 34.9 26.1 30.7 21 30.7 z" stroke-linecap="round" />
</g>
		<g transform="matrix(1 0 0 1 -19 0)" id="jjBOzjcp1dmDCliE8ynhq"  >
<path style="stroke: none; stroke-width: 1; stroke-dasharray: none; stroke-linecap: butt; stroke-dashoffset: 0; stroke-linejoin: miter; stroke-miterlimit: 4; fill: rgb(255,255,255); fill-rule: nonzero; opacity: 1;"  transform=" translate(-21, -40)" d="M 27.1 40 C 27.1 43.4 24.400000000000002 46.1 21 46.1 C 17.599999999999998 46.1 14.9 43.4 14.9 40 C 14.9 36.6 17.6 33.9 21 33.9 C 24.3 33.9 27.1 36.6 27.1 40 z" stroke-linecap="round" />
</g>
		<g transform="matrix(1 0 0 1 20.15 -0.05)" id="P_1v51tg1hAcFBK9As_3Z"  >
<path style="stroke: none; stroke-width: 1; stroke-dasharray: none; stroke-linecap: butt; stroke-dashoffset: 0; stroke-linejoin: miter; stroke-miterlimit: 4; fill: rgb(179,181,179); fill-rule: nonzero; opacity: 1;"  transform=" translate(-60.15, -39.95)" d="M 56.5 40 C 56.5 41.5 55.3 42.7 53.8 42.7 C 52.3 42.7 51.099999999999994 41.5 51.099999999999994 40 C 51.099999999999994 38.5 52.3 37.3 53.8 37.3 C 55.3 37.3 56.5 38.5 56.5 40 z M 66.5 37.3 C 65 37.3 63.8 38.5 63.8 40 C 63.8 41.5 65 42.7 66.5 42.7 C 68 42.7 69.2 41.5 69.2 40 C 69.2 38.5 68 37.3 66.5 37.3 z M 60.1 43.6 C 58.6 43.6 57.4 44.800000000000004 57.4 46.300000000000004 C 57.4 47.800000000000004 58.6 49.00000000000001 60.1 49.00000000000001 C 61.6 49.00000000000001 62.800000000000004 47.800000000000004 62.800000000000004 46.300000000000004 C 62.800000000000004 44.800000000000004 61.6 43.6 60.1 43.6 z M 60.1 30.9 C 58.6 30.9 57.4 32.1 57.4 33.6 C 57.4 35.1 58.6 36.300000000000004 60.1 36.300000000000004 C 61.6 36.300000000000004 62.800000000000004 35.1 62.800000000000004 33.6 C 62.8 32.2 61.6 30.9 60.1 30.9 z" stroke-linecap="round" />
</g>
</g>
</g>
<g transform="matrix(1.5504585916 0.5643207768 -0.5643207768 1.5504585916 483.3541583107 159.4032185247)" id="clzW6BKh_9HoPQK9Dqoso"  >
<path style="stroke: none; stroke-width: 1; stroke-dasharray: none; stroke-linecap: butt; stroke-dashoffset: 0; stroke-linejoin: miter; stroke-miterlimit: 4; fill: rgb(179,181,179); fill-rule: nonzero; opacity: 1;"  transform=" translate(-40, -39.9995)" d="M 64.002 38.692 L 41.308 38.692 L 41.308 25.094 C 48.602 24.901 54.766 23.12 59.564 21.027 C 62.337 26.437 63.823 32.342 64.002 38.692 z M 41.308 2.16 L 41.308 22.477 C 47.964 22.293 53.663 20.721 58.288 18.721 C 56.525999999999996 15.769 54.363 12.974 51.797999999999995 10.345 C 47.724 6.17 43.608 3.488 41.308 2.16 z M 38.692 38.692 L 38.692 25.094 C 31.398 24.901 25.234 23.12 20.436 21.027 C 17.663 26.437 16.177 32.342 15.998000000000001 38.693 L 38.692 38.693 z M 28.202 10.345 C 25.635 12.975000000000001 23.470000000000002 15.772 21.708000000000002 18.727 C 26.195 20.656 31.929000000000002 22.287 38.69200000000001 22.476 L 38.69200000000001 2.16 C 36.392 3.488 32.276 6.17 28.202 10.345 z M 66.62 41.308 C 66.452 47.484 65.08800000000001 53.351 62.55800000000001 58.763 C 62.35300000000001 59.202999999999996 62.13700000000001 59.638999999999996 61.916000000000004 60.073 C 63.132000000000005 60.682 64.23700000000001 61.297 65.22500000000001 61.892 C 67.44500000000001 63.229000000000006 69.266 64.562 70.676 65.706 C 76.248 59.063 79.702 50.585 80 41.309000000000005 L 66.62 41.309000000000005 z M 13.38 38.692 C 13.549000000000001 32.516 14.913 26.649 17.442 21.237000000000002 C 17.648 20.797 17.863 20.361 18.084 19.927000000000003 C 16.868 19.318000000000005 15.763 18.703000000000003 14.774999999999999 18.108000000000004 C 12.554999999999998 16.771000000000004 10.733999999999998 15.438000000000004 9.323999999999998 14.294000000000004 C 3.752 20.938 0.298 29.416 0 38.692 L 13.38 38.692 z M 38.692 41.308 L 15.998 41.308 C 16.177 47.658 17.663 53.563 20.436 58.973 C 25.234 56.879999999999995 31.399 55.099 38.692 54.906 L 38.692 41.308 z M 18.084 60.073 C 17.863 59.639 17.647 59.203 17.442 58.763 C 14.912 53.349999999999994 13.548 47.483999999999995 13.379999999999999 41.308 L 0 41.308 C 0.298 50.584 3.752 59.062 9.324 65.705 C 10.734 64.56099999999999 12.555 63.228 14.774999999999999 61.891 C 15.763 61.297 16.868 60.681 18.084 60.073 z M 26.4 71.554 C 23.624 68.721 21.262999999999998 65.646 19.346999999999998 62.38 C 15.804999999999998 64.151 13.026999999999997 66.099 11.077999999999998 67.665 C 17.726999999999997 74.614 26.854999999999997 79.17 37.041 79.914 C 34.56 78.456 30.496 75.735 26.4 71.554 z M 16.212 15.92 C 17.146 16.479 18.19 17.059 19.34 17.631 C 21.257 14.361 23.621 11.283000000000001 26.4 8.446 C 30.496 4.266 34.56 1.5439999999999996 37.041 0.0860000000000003 C 26.853 0.83 17.723 5.388 11.074 12.34 C 12.408 13.416 14.129 14.671 16.212 15.92 z M 63.788 64.08 C 62.854 63.521 61.809999999999995 62.940999999999995 60.66 62.369 C 58.742999999999995 65.639 56.379 68.717 53.599999999999994 71.554 C 49.50399999999999 75.73400000000001 45.44 78.456 42.958999999999996 79.914 C 53.147999999999996 79.169 62.27799999999999 74.611 68.92699999999999 67.66 C 67.592 66.584 65.871 65.329 63.788 64.08 z M 53.6 8.446 C 56.376000000000005 11.279 58.737 14.354 60.653 17.619999999999997 C 64.195 15.848999999999997 66.973 13.900999999999998 68.92099999999999 12.334999999999997 C 62.273 5.386 53.145 0.83 42.959 0.085 C 45.44 1.544 49.504 4.266 53.6 8.446 z M 41.308 41.308 L 41.308 54.906 C 48.602 55.099 54.766 56.879999999999995 59.564 58.973 C 62.337 53.563 63.823 47.658 64.002 41.308 L 41.308 41.308 z M 51.798 69.655 C 54.365 67.025 56.53 64.22800000000001 58.292 61.273 C 53.805 59.344 48.071 57.713 41.308 57.524 L 41.308 77.84 C 43.608 76.512 47.724 73.83 51.798 69.655 z M 65.224 18.108 C 64.236 18.703 63.131 19.318 61.915000000000006 19.927 C 62.136 20.361 62.352000000000004 20.797 62.55700000000001 21.237 C 65.087 26.65 66.45100000000001 32.516 66.61900000000001 38.69199999999999 L 80 38.69199999999999 C 79.702 29.415999999999993 76.248 20.93799999999999 70.676 14.294999999999995 C 69.266 15.438 67.445 16.771 65.224 18.108 z M 38.692 77.84 L 38.692 57.523 C 32.036 57.707 26.337 59.279 21.712 61.279 C 23.474 64.23100000000001 25.637 67.02600000000001 28.201999999999998 69.655 C 32.276 73.83 36.392 76.512 38.692 77.84 z" stroke-linecap="round" />
</g>
<g transform="matrix(1.9614241729 0 0 1.9614241729 333.006580564 123.3916624662)" id="CAzxRcR6OlG7ts0IKDsdX"  >
<path style="stroke: rgb(179,181,179); stroke-width: 4; stroke-dasharray: none; stroke-linecap: butt; stroke-dashoffset: 0; stroke-linejoin: miter; stroke-miterlimit: 4; fill: rgb(255,255,255); fill-rule: nonzero; opacity: 1;"  transform=" translate(0.000005, 0)" d="M -58.36139 -33.60075 C -58.36139 -47.27567 -47.27567 -58.36139 -33.600750000000005 -58.36139 L 33.60074 -58.36139 L 33.60074 -58.36139 C 47.27566 -58.36139 58.36138 -47.27567 58.36138 -33.600750000000005 L 58.36138 33.60074999999999 L 58.36138 33.60074999999999 C 58.36138 47.27566999999999 47.275659999999995 58.361389999999986 33.60074 58.361389999999986 L -33.600750000000005 58.361389999999986 L -33.600750000000005 58.361389999999986 C -47.275670000000005 58.361389999999986 -58.36139 47.275669999999984 -58.36139 33.60074999999999 z" stroke-linecap="round" />
</g>
<g transform="matrix(2.1172954274 0 0 2.1172954274 333.006580564 123.3916624662)" id="bqyid9UqMeFLeMwnJjj2g"  >
<g style=""   >
		<g transform="matrix(1 0 0 1 0 3.5)" id="1oi_16xmHsecl0MnrA-pK"  >
<path style="stroke: none; stroke-width: 1; stroke-dasharray: none; stroke-linecap: butt; stroke-dashoffset: 0; stroke-linejoin: miter; stroke-miterlimit: 4; fill: rgb(179,181,179); fill-rule: nonzero; opacity: 1;"  transform=" translate(-40, -43.5)" d="M 24.3 34.9 C 24.400000000000002 33.8 25 26.099999999999998 17.1 26.099999999999998 C 8.700000000000001 26.099999999999998 9.900000000000002 35 9.900000000000002 35 C 9.4 35 9 35.4 9 36.8 C 9.1 38.5 10.3 39.5 10.7 39.8 C 10.899999999999999 40.199999999999996 11.399999999999999 41.4 12.299999999999999 42.699999999999996 L 12.299999999999999 45.9 C 12.1 46.1 9.299999999999999 48.6 9.299999999999999 48.6 L 3.1999999999999993 51.5 C 1.9999999999999993 52 1.1999999999999993 53.1 0.8999999999999995 54.4 L 0 61 C 0 61 12.4 61 12.4 60.9 L 13 57.8 C 13.5 55.4 15.1 53.3 17.3 52.3 L 25.200000000000003 48.699999999999996 C 25.200000000000003 48.699999999999996 22.000000000000004 45.9 22.000000000000004 45.9 L 22.000000000000004 42.699999999999996 C 22.900000000000002 41.4 23.400000000000002 40.099999999999994 23.600000000000005 39.699999999999996 C 24.000000000000004 39.4 25.200000000000006 38.49999999999999 25.300000000000004 36.699999999999996 C 25.3 35.2 24.8 34.9 24.3 34.9 z M 54.7 36.8 C 54.800000000000004 38.5 56 39.5 56.400000000000006 39.8 C 56.60000000000001 40.199999999999996 57.10000000000001 41.4 58.00000000000001 42.8 L 58.00000000000001 46 C 58.00000000000001 46 54.800000000000004 48.8 54.800000000000004 48.8 L 62.7 52.4 C 65 53.4 66.60000000000001 55.5 67 57.9 L 67.6 61 C 67.6 61 80 61 80 61 L 79 54.3 C 78.7 53 77.9 52 76.7 51.4 L 70.60000000000001 48.5 C 70.60000000000001 48.5 67.80000000000001 46 67.60000000000001 45.8 L 67.60000000000001 42.599999999999994 C 68.50000000000001 41.3 69.00000000000001 40.099999999999994 69.2 39.699999999999996 C 69.60000000000001 39.4 70.8 38.4 70.9 36.699999999999996 C 71 35.3 70.5 34.99999999999999 70.10000000000001 34.9 C 70.10000000000001 34.9 71.30000000000001 26 62.900000000000006 26 C 55.00000000000001 26 55.60000000000001 33.7 55.7 34.8 C 55.2 34.9 54.7 35.2 54.7 36.8 z" stroke-linecap="round" />
</g>
		<g transform="matrix(1 0 0 1 -0.05 0.05)" id="5sbX_KRocvxkAnb_HIx_F"  >
<path style="stroke: none; stroke-width: 1; stroke-dasharray: none; stroke-linecap: butt; stroke-dashoffset: 0; stroke-linejoin: miter; stroke-miterlimit: 4; fill: rgb(179,181,179); fill-rule: nonzero; opacity: 1;"  transform=" translate(-39.95, -40.05)" d="M 62.2 53.6 L 52.2 49 C 52.2 49 47.400000000000006 44.6 47.400000000000006 44.6 L 47.300000000000004 39.5 C 48.7 37.4 49.6 35.5 49.800000000000004 34.9 C 50.400000000000006 34.5 52.400000000000006 32.9 52.50000000000001 30.299999999999997 C 52.60000000000001 27.9 51.800000000000004 27.299999999999997 51.10000000000001 27.299999999999997 C 51.30000000000001 25.599999999999998 52.10000000000001 13.399999999999997 39.70000000000001 13.399999999999997 C 26.30000000000001 13.399999999999997 28.20000000000001 27.499999999999996 28.20000000000001 27.499999999999996 L 28.20000000000001 27.499999999999996 C 27.50000000000001 27.599999999999998 26.80000000000001 28.099999999999998 26.90000000000001 30.299999999999997 C 27.00000000000001 33 29.00000000000001 34.5 29.60000000000001 34.9 C 29.90000000000001 35.5 30.70000000000001 37.5 32.10000000000001 39.5 L 32.10000000000001 44.6 C 32.10000000000001 44.6 27.40000000000001 49 27.40000000000001 49 L 17.80000000000001 53.6 C 15.900000000000011 54.5 14.600000000000012 56.1 14.200000000000012 58.1 L 12.500000000000012 66.7 L 67.4 66.7 L 65.7 58.1 C 65.4 56.1 64 54.4 62.2 53.6 z" stroke-linecap="round" />
</g>
</g>
</g>
<g transform="matrix(1.7260458337 -0.2733788033 0.2733788033 1.7260458337 265.2021122356 275.0256415077)" id="br0BJlaE03PNLO0gkHNE5"  >
<g style=""   >
		<g transform="matrix(1 0 0 1 0.0184381116 0.0059475912)" id="XA0v8lJ-eaJcKmxhPG3Tu"  >
<path style="stroke: none; stroke-width: 1; stroke-dasharray: none; stroke-linecap: butt; stroke-dashoffset: 0; stroke-linejoin: miter; stroke-miterlimit: 4; fill: rgb(179,181,179); fill-rule: nonzero; opacity: 1;"  transform=" translate(-40.0184381116, -40.0059475912)" d="M 70.2 0.8 L 5.3 24.5 C 0.6 26.4 0 29.2 0 30.7 C 0 32.2 0.8 35 5.6 36.6 L 24.200000000000003 43 L 4.6 62.5 C 1.2999999999999998 65.8 1.2999999999999998 71.1 4.6 74.4 L 5.6 75.4 C 8.8 78.60000000000001 14.299999999999999 78.60000000000001 17.5 75.4 L 37 55.8 L 43.4 74.4 C 45.1 79.30000000000001 47.9 80 49.4 80 L 49.4 80 C 50.9 80 53.6 79.3 55.5 74.6 L 79.2 9.8 C 80.7 6.1000000000000005 79.9 3.700000000000001 79 2.4000000000000004 C 77.3 0 73.8 -0.7 70.2 0.8 z" stroke-linecap="round" />
</g>
		<g transform="matrix(1 0 0 1 0.6 -0.6)" id="AtFf9m60Spx65Jg4KDhl8"  >
<path style="stroke: none; stroke-width: 1; stroke-dasharray: none; stroke-linecap: butt; stroke-dashoffset: 0; stroke-linejoin: miter; stroke-miterlimit: 4; fill: rgb(255,255,255); fill-rule: nonzero; opacity: 1;"  transform=" translate(-40.6, -39.4)" d="M 7.8 30.5 C 7.8 30.5 73.39999999999999 6.600000000000001 73.39999999999999 6.600000000000001 C 73.39999999999999 6.600000000000001 49.49999999999999 72.19999999999999 49.49999999999999 72.19999999999999 C 49.49999999999999 72.19999999999999 41.49999999999999 49.39999999999999 41.099999999999994 48.499999999999986 C 40.699999999999996 47.59999999999999 39.699999999999996 46.899999999999984 38.599999999999994 46.79999999999998 C 37.599999999999994 46.69999999999998 36.599999999999994 47.09999999999998 35.89999999999999 47.69999999999998 L 12.9 70.8 C 12.200000000000001 71.5 10.9 71.5 10.2 70.8 L 9.2 69.8 C 8.5 69.1 8.5 67.8 9.2 67.1 L 32.3 44 C 33 43.3 33.3 42.3 33.199999999999996 41.2 C 33.099999999999994 40.2 32.3 39.1 31.099999999999994 38.7 C 29.9 38.2 7.8 30.5 7.8 30.5 z" stroke-linecap="round" />
</g>
</g>
</g>
</svg>