
<svg xmlns="http://www.w3.org/2000/svg" xml:space="preserve" width="36" height="36"><path d="m60 40 20 40H0l20-40L40 0l20 40z" style="stroke:none;stroke-width:1;stroke-dasharray:none;stroke-linecap:butt;stroke-dashoffset:0;stroke-linejoin:miter;stroke-miterlimit:4;fill:#000;fill-rule:nonzero;opacity:1" transform="matrix(-.09455 -.04818 .05663 -.11114 7.824 35.385)"/><path d="m122.587 0 102.744 52.35-122.587 240.591L0 240.591zM19.77 231.387l30.602 15.593L158.996 33.794 128.394 18.2z" style="stroke:#0cd141;stroke-width:0;stroke-dasharray:none;stroke-linecap:butt;stroke-dashoffset:0;stroke-linejoin:miter;stroke-miterlimit:4;fill:#000;fill-rule:nonzero;opacity:1" transform="translate(5.348 3.495) scale(.07454)"/><path d="M-26.094 1c0-14.964 3.193-27.094 7.133-27.094H18.96c3.94 0 7.133 12.13 7.133 27.094v18.54c0 3.62-.772 6.554-1.725 6.554h-48.738c-.953 0-1.725-2.934-1.725-6.553z" style="stroke:#09ba18;stroke-width:0;stroke-dasharray:none;stroke-linecap:butt;stroke-dashoffset:0;stroke-linejoin:miter;stroke-miterlimit:4;fill:#000;fill-rule:nonzero;opacity:1" transform="matrix(.14675 .07477 -.01968 .03863 19.276 3.495)"/><path d="M-28.339-28.339H28.34V28.34H-28.34z" style="stroke:#c1895a;stroke-width:0;stroke-dasharray:none;stroke-linecap:butt;stroke-dashoffset:0;stroke-linejoin:miter;stroke-miterlimit:4;fill:#000;fill-rule:nonzero;opacity:1" transform="matrix(.2184 0 -.01323 .0251 29.252 8.191)"/><path d="M-28.339-28.339H28.34V28.34H-28.34z" style="stroke:#c1895a;stroke-width:0;stroke-dasharray:none;stroke-linecap:butt;stroke-dashoffset:0;stroke-linejoin:miter;stroke-miterlimit:4;fill:#000;fill-rule:nonzero;opacity:1" transform="matrix(.2184 0 -.01323 .0251 25.135 16.466)"/><path d="M-28.339-28.339H28.34V28.34H-28.34z" style="stroke:#c1895a;stroke-width:0;stroke-dasharray:none;stroke-linecap:butt;stroke-dashoffset:0;stroke-linejoin:miter;stroke-miterlimit:4;fill:#000;fill-rule:nonzero;opacity:1" transform="matrix(.2184 0 -.01323 .0251 21.12 24.62)"/></svg>